<mxfile host="app.diagrams.net" agent="Mozilla/5.0 (Windows NT 10.0; Win64; x64) AppleWebKit/537.36 (KHTML, like Gecko) Chrome/131.0.0.0 Safari/537.36" version="25.0.3">
  <diagram name="หน้า-1" id="TyEJ_0nZjbAOOL9D8dor">
    <mxGraphModel dx="1034" dy="446" grid="1" gridSize="10" guides="1" tooltips="1" connect="1" arrows="1" fold="1" page="1" pageScale="1" pageWidth="827" pageHeight="1169" math="0" shadow="0">
      <root>
        <mxCell id="0" />
        <mxCell id="1" parent="0" />
        <mxCell id="WLp2PhEPggi1hbm3gHjh-3" value="" style="edgeStyle=orthogonalEdgeStyle;rounded=0;orthogonalLoop=1;jettySize=auto;html=1;" edge="1" parent="1" source="WLp2PhEPggi1hbm3gHjh-1" target="WLp2PhEPggi1hbm3gHjh-2">
          <mxGeometry relative="1" as="geometry" />
        </mxCell>
        <mxCell id="WLp2PhEPggi1hbm3gHjh-1" value="start" style="strokeWidth=2;html=1;shape=mxgraph.flowchart.start_1;whiteSpace=wrap;" vertex="1" parent="1">
          <mxGeometry x="300" y="70" width="100" height="60" as="geometry" />
        </mxCell>
        <mxCell id="WLp2PhEPggi1hbm3gHjh-5" value="" style="edgeStyle=orthogonalEdgeStyle;rounded=0;orthogonalLoop=1;jettySize=auto;html=1;" edge="1" parent="1" source="WLp2PhEPggi1hbm3gHjh-2" target="WLp2PhEPggi1hbm3gHjh-4">
          <mxGeometry relative="1" as="geometry" />
        </mxCell>
        <mxCell id="WLp2PhEPggi1hbm3gHjh-2" value="สร้างตัวแปร&lt;div&gt;int Arry1[ 100 ]&amp;nbsp;&lt;/div&gt;&lt;div&gt;int Array2[ 100 ]&lt;/div&gt;&lt;div&gt;int number = 0&lt;/div&gt;&lt;div&gt;int input&lt;/div&gt;" style="whiteSpace=wrap;html=1;strokeWidth=2;" vertex="1" parent="1">
          <mxGeometry x="270" y="210" width="160" height="120" as="geometry" />
        </mxCell>
        <mxCell id="WLp2PhEPggi1hbm3gHjh-9" value="" style="edgeStyle=orthogonalEdgeStyle;rounded=0;orthogonalLoop=1;jettySize=auto;html=1;" edge="1" parent="1" source="WLp2PhEPggi1hbm3gHjh-4" target="WLp2PhEPggi1hbm3gHjh-8">
          <mxGeometry relative="1" as="geometry" />
        </mxCell>
        <mxCell id="WLp2PhEPggi1hbm3gHjh-22" style="edgeStyle=orthogonalEdgeStyle;rounded=0;orthogonalLoop=1;jettySize=auto;html=1;exitX=1;exitY=0.5;exitDx=0;exitDy=0;entryX=0.95;entryY=0.35;entryDx=0;entryDy=0;entryPerimeter=0;" edge="1" parent="1" source="WLp2PhEPggi1hbm3gHjh-4" target="WLp2PhEPggi1hbm3gHjh-23">
          <mxGeometry relative="1" as="geometry">
            <mxPoint x="580" y="1020" as="targetPoint" />
            <Array as="points">
              <mxPoint x="560" y="470" />
              <mxPoint x="560" y="970" />
            </Array>
          </mxGeometry>
        </mxCell>
        <mxCell id="WLp2PhEPggi1hbm3gHjh-4" value="numer != 0 ?" style="rhombus;whiteSpace=wrap;html=1;strokeWidth=2;" vertex="1" parent="1">
          <mxGeometry x="310" y="430" width="80" height="80" as="geometry" />
        </mxCell>
        <mxCell id="WLp2PhEPggi1hbm3gHjh-12" value="" style="edgeStyle=orthogonalEdgeStyle;rounded=0;orthogonalLoop=1;jettySize=auto;html=1;" edge="1" parent="1" source="WLp2PhEPggi1hbm3gHjh-8" target="WLp2PhEPggi1hbm3gHjh-11">
          <mxGeometry relative="1" as="geometry" />
        </mxCell>
        <mxCell id="WLp2PhEPggi1hbm3gHjh-8" value="printf( &quot;Input value to Array1 [%d]: \n&quot;, number ) ;" style="shape=parallelogram;perimeter=parallelogramPerimeter;whiteSpace=wrap;html=1;fixedSize=1;strokeWidth=2;" vertex="1" parent="1">
          <mxGeometry x="192.5" y="580" width="315" height="60" as="geometry" />
        </mxCell>
        <mxCell id="WLp2PhEPggi1hbm3gHjh-10" value="T" style="text;html=1;align=center;verticalAlign=middle;resizable=0;points=[];autosize=1;strokeColor=none;fillColor=none;" vertex="1" parent="1">
          <mxGeometry x="365" y="508" width="30" height="30" as="geometry" />
        </mxCell>
        <mxCell id="WLp2PhEPggi1hbm3gHjh-14" value="" style="edgeStyle=orthogonalEdgeStyle;rounded=0;orthogonalLoop=1;jettySize=auto;html=1;" edge="1" parent="1" source="WLp2PhEPggi1hbm3gHjh-11" target="WLp2PhEPggi1hbm3gHjh-13">
          <mxGeometry relative="1" as="geometry" />
        </mxCell>
        <mxCell id="WLp2PhEPggi1hbm3gHjh-11" value="รับค่าจากผู้ใช้" style="shape=parallelogram;perimeter=parallelogramPerimeter;whiteSpace=wrap;html=1;fixedSize=1;strokeWidth=2;" vertex="1" parent="1">
          <mxGeometry x="290" y="720" width="120" height="60" as="geometry" />
        </mxCell>
        <mxCell id="WLp2PhEPggi1hbm3gHjh-16" value="" style="edgeStyle=orthogonalEdgeStyle;rounded=0;orthogonalLoop=1;jettySize=auto;html=1;" edge="1" parent="1" source="WLp2PhEPggi1hbm3gHjh-13" target="WLp2PhEPggi1hbm3gHjh-15">
          <mxGeometry relative="1" as="geometry" />
        </mxCell>
        <mxCell id="WLp2PhEPggi1hbm3gHjh-21" value="" style="edgeStyle=orthogonalEdgeStyle;rounded=0;orthogonalLoop=1;jettySize=auto;html=1;" edge="1" parent="1" source="WLp2PhEPggi1hbm3gHjh-13" target="WLp2PhEPggi1hbm3gHjh-20">
          <mxGeometry relative="1" as="geometry" />
        </mxCell>
        <mxCell id="WLp2PhEPggi1hbm3gHjh-13" value="input = -1 ?" style="rhombus;whiteSpace=wrap;html=1;strokeWidth=2;" vertex="1" parent="1">
          <mxGeometry x="310" y="850" width="80" height="80" as="geometry" />
        </mxCell>
        <mxCell id="WLp2PhEPggi1hbm3gHjh-18" style="edgeStyle=orthogonalEdgeStyle;rounded=0;orthogonalLoop=1;jettySize=auto;html=1;exitX=0;exitY=0.5;exitDx=0;exitDy=0;entryX=-0.1;entryY=0.6;entryDx=0;entryDy=0;entryPerimeter=0;" edge="1" parent="1" source="WLp2PhEPggi1hbm3gHjh-15" target="WLp2PhEPggi1hbm3gHjh-19">
          <mxGeometry relative="1" as="geometry">
            <mxPoint x="80" y="340" as="targetPoint" />
            <Array as="points">
              <mxPoint x="40" y="890" />
              <mxPoint x="40" y="360" />
            </Array>
          </mxGeometry>
        </mxCell>
        <mxCell id="WLp2PhEPggi1hbm3gHjh-15" value="i++" style="whiteSpace=wrap;html=1;strokeWidth=2;" vertex="1" parent="1">
          <mxGeometry x="90" y="860" width="120" height="60" as="geometry" />
        </mxCell>
        <mxCell id="WLp2PhEPggi1hbm3gHjh-17" value="F" style="text;html=1;align=center;verticalAlign=middle;resizable=0;points=[];autosize=1;strokeColor=none;fillColor=none;" vertex="1" parent="1">
          <mxGeometry x="265" y="848" width="30" height="30" as="geometry" />
        </mxCell>
        <mxCell id="WLp2PhEPggi1hbm3gHjh-19" value="" style="shape=waypoint;sketch=0;fillStyle=solid;size=6;pointerEvents=1;points=[];fillColor=none;resizable=0;rotatable=0;perimeter=centerPerimeter;snapToPoint=1;" vertex="1" parent="1">
          <mxGeometry x="340" y="350" width="20" height="20" as="geometry" />
        </mxCell>
        <mxCell id="WLp2PhEPggi1hbm3gHjh-27" value="" style="edgeStyle=orthogonalEdgeStyle;rounded=0;orthogonalLoop=1;jettySize=auto;html=1;" edge="1" parent="1" source="WLp2PhEPggi1hbm3gHjh-20" target="WLp2PhEPggi1hbm3gHjh-26">
          <mxGeometry relative="1" as="geometry" />
        </mxCell>
        <mxCell id="WLp2PhEPggi1hbm3gHjh-20" value="แสดงข้อมูล Arry1" style="shape=parallelogram;perimeter=parallelogramPerimeter;whiteSpace=wrap;html=1;fixedSize=1;strokeWidth=2;" vertex="1" parent="1">
          <mxGeometry x="290" y="1020" width="120" height="60" as="geometry" />
        </mxCell>
        <mxCell id="WLp2PhEPggi1hbm3gHjh-23" value="" style="shape=waypoint;sketch=0;fillStyle=solid;size=6;pointerEvents=1;points=[];fillColor=none;resizable=0;rotatable=0;perimeter=centerPerimeter;snapToPoint=1;" vertex="1" parent="1">
          <mxGeometry x="340" y="960" width="20" height="20" as="geometry" />
        </mxCell>
        <mxCell id="WLp2PhEPggi1hbm3gHjh-24" value="F" style="text;html=1;align=center;verticalAlign=middle;resizable=0;points=[];autosize=1;strokeColor=none;fillColor=none;" vertex="1" parent="1">
          <mxGeometry x="395" y="418" width="30" height="30" as="geometry" />
        </mxCell>
        <mxCell id="WLp2PhEPggi1hbm3gHjh-25" value="T" style="text;html=1;align=center;verticalAlign=middle;resizable=0;points=[];autosize=1;strokeColor=none;fillColor=none;" vertex="1" parent="1">
          <mxGeometry x="365" y="918" width="30" height="30" as="geometry" />
        </mxCell>
        <mxCell id="WLp2PhEPggi1hbm3gHjh-29" value="" style="edgeStyle=orthogonalEdgeStyle;rounded=0;orthogonalLoop=1;jettySize=auto;html=1;" edge="1" parent="1" source="WLp2PhEPggi1hbm3gHjh-26" target="WLp2PhEPggi1hbm3gHjh-28">
          <mxGeometry relative="1" as="geometry" />
        </mxCell>
        <mxCell id="WLp2PhEPggi1hbm3gHjh-26" value="int i = 0" style="whiteSpace=wrap;html=1;strokeWidth=2;" vertex="1" parent="1">
          <mxGeometry x="290" y="1160" width="120" height="60" as="geometry" />
        </mxCell>
        <mxCell id="WLp2PhEPggi1hbm3gHjh-31" value="" style="edgeStyle=orthogonalEdgeStyle;rounded=0;orthogonalLoop=1;jettySize=auto;html=1;" edge="1" parent="1" source="WLp2PhEPggi1hbm3gHjh-28" target="WLp2PhEPggi1hbm3gHjh-30">
          <mxGeometry relative="1" as="geometry" />
        </mxCell>
        <mxCell id="WLp2PhEPggi1hbm3gHjh-40" value="" style="edgeStyle=orthogonalEdgeStyle;rounded=0;orthogonalLoop=1;jettySize=auto;html=1;" edge="1" parent="1" source="WLp2PhEPggi1hbm3gHjh-28" target="WLp2PhEPggi1hbm3gHjh-39">
          <mxGeometry relative="1" as="geometry" />
        </mxCell>
        <mxCell id="WLp2PhEPggi1hbm3gHjh-28" value="i &amp;lt; number?" style="rhombus;whiteSpace=wrap;html=1;strokeWidth=2;" vertex="1" parent="1">
          <mxGeometry x="310" y="1290" width="80" height="80" as="geometry" />
        </mxCell>
        <mxCell id="WLp2PhEPggi1hbm3gHjh-34" value="" style="edgeStyle=orthogonalEdgeStyle;rounded=0;orthogonalLoop=1;jettySize=auto;html=1;" edge="1" parent="1" source="WLp2PhEPggi1hbm3gHjh-30" target="WLp2PhEPggi1hbm3gHjh-33">
          <mxGeometry relative="1" as="geometry" />
        </mxCell>
        <mxCell id="WLp2PhEPggi1hbm3gHjh-30" value="printf( &quot;%d&quot;,Arry1[ i ]&amp;nbsp;" style="shape=parallelogram;perimeter=parallelogramPerimeter;whiteSpace=wrap;html=1;fixedSize=1;strokeWidth=2;" vertex="1" parent="1">
          <mxGeometry x="250" y="1450" width="200" height="90" as="geometry" />
        </mxCell>
        <mxCell id="WLp2PhEPggi1hbm3gHjh-32" value="T" style="text;html=1;align=center;verticalAlign=middle;resizable=0;points=[];autosize=1;strokeColor=none;fillColor=none;" vertex="1" parent="1">
          <mxGeometry x="315" y="1368" width="30" height="30" as="geometry" />
        </mxCell>
        <mxCell id="WLp2PhEPggi1hbm3gHjh-33" value="i++" style="whiteSpace=wrap;html=1;strokeWidth=2;" vertex="1" parent="1">
          <mxGeometry x="290" y="1635" width="120" height="60" as="geometry" />
        </mxCell>
        <mxCell id="WLp2PhEPggi1hbm3gHjh-35" value="" style="shape=waypoint;sketch=0;fillStyle=solid;size=6;pointerEvents=1;points=[];fillColor=none;resizable=0;rotatable=0;perimeter=centerPerimeter;snapToPoint=1;" vertex="1" parent="1">
          <mxGeometry x="340" y="1240" width="20" height="20" as="geometry" />
        </mxCell>
        <mxCell id="WLp2PhEPggi1hbm3gHjh-36" style="edgeStyle=orthogonalEdgeStyle;rounded=0;orthogonalLoop=1;jettySize=auto;html=1;exitX=0.5;exitY=1;exitDx=0;exitDy=0;entryX=0.15;entryY=0.55;entryDx=0;entryDy=0;entryPerimeter=0;" edge="1" parent="1" source="WLp2PhEPggi1hbm3gHjh-33" target="WLp2PhEPggi1hbm3gHjh-35">
          <mxGeometry relative="1" as="geometry">
            <Array as="points">
              <mxPoint x="350" y="1715" />
              <mxPoint x="180" y="1715" />
              <mxPoint x="180" y="1250" />
            </Array>
          </mxGeometry>
        </mxCell>
        <mxCell id="WLp2PhEPggi1hbm3gHjh-42" value="" style="edgeStyle=orthogonalEdgeStyle;rounded=0;orthogonalLoop=1;jettySize=auto;html=1;" edge="1" parent="1" source="WLp2PhEPggi1hbm3gHjh-39" target="WLp2PhEPggi1hbm3gHjh-41">
          <mxGeometry relative="1" as="geometry" />
        </mxCell>
        <mxCell id="WLp2PhEPggi1hbm3gHjh-39" value="int i = 0" style="whiteSpace=wrap;html=1;strokeWidth=2;" vertex="1" parent="1">
          <mxGeometry x="450" y="1300" width="120" height="60" as="geometry" />
        </mxCell>
        <mxCell id="WLp2PhEPggi1hbm3gHjh-44" value="" style="edgeStyle=orthogonalEdgeStyle;rounded=0;orthogonalLoop=1;jettySize=auto;html=1;" edge="1" parent="1" source="WLp2PhEPggi1hbm3gHjh-41" target="WLp2PhEPggi1hbm3gHjh-43">
          <mxGeometry relative="1" as="geometry" />
        </mxCell>
        <mxCell id="WLp2PhEPggi1hbm3gHjh-51" value="" style="edgeStyle=orthogonalEdgeStyle;rounded=0;orthogonalLoop=1;jettySize=auto;html=1;" edge="1" parent="1" source="WLp2PhEPggi1hbm3gHjh-41" target="WLp2PhEPggi1hbm3gHjh-50">
          <mxGeometry relative="1" as="geometry" />
        </mxCell>
        <mxCell id="WLp2PhEPggi1hbm3gHjh-41" value="i &amp;lt; number ?" style="rhombus;whiteSpace=wrap;html=1;strokeWidth=2;" vertex="1" parent="1">
          <mxGeometry x="670" y="1290" width="80" height="80" as="geometry" />
        </mxCell>
        <mxCell id="WLp2PhEPggi1hbm3gHjh-46" value="" style="edgeStyle=orthogonalEdgeStyle;rounded=0;orthogonalLoop=1;jettySize=auto;html=1;" edge="1" parent="1" source="WLp2PhEPggi1hbm3gHjh-43" target="WLp2PhEPggi1hbm3gHjh-45">
          <mxGeometry relative="1" as="geometry" />
        </mxCell>
        <mxCell id="WLp2PhEPggi1hbm3gHjh-43" value="Arry2[ i ]" style="whiteSpace=wrap;html=1;strokeWidth=2;" vertex="1" parent="1">
          <mxGeometry x="650" y="1460" width="120" height="60" as="geometry" />
        </mxCell>
        <mxCell id="WLp2PhEPggi1hbm3gHjh-45" value="i++" style="whiteSpace=wrap;html=1;strokeWidth=2;" vertex="1" parent="1">
          <mxGeometry x="650" y="1600" width="120" height="60" as="geometry" />
        </mxCell>
        <mxCell id="WLp2PhEPggi1hbm3gHjh-47" value="" style="shape=waypoint;sketch=0;fillStyle=solid;size=6;pointerEvents=1;points=[];fillColor=none;resizable=0;rotatable=0;perimeter=centerPerimeter;snapToPoint=1;" vertex="1" parent="1">
          <mxGeometry x="700" y="1400" width="20" height="20" as="geometry" />
        </mxCell>
        <mxCell id="WLp2PhEPggi1hbm3gHjh-48" style="edgeStyle=orthogonalEdgeStyle;rounded=0;orthogonalLoop=1;jettySize=auto;html=1;exitX=0.5;exitY=1;exitDx=0;exitDy=0;entryX=0.9;entryY=0.45;entryDx=0;entryDy=0;entryPerimeter=0;" edge="1" parent="1" source="WLp2PhEPggi1hbm3gHjh-45" target="WLp2PhEPggi1hbm3gHjh-47">
          <mxGeometry relative="1" as="geometry">
            <Array as="points">
              <mxPoint x="710" y="1700" />
              <mxPoint x="600" y="1700" />
              <mxPoint x="600" y="1410" />
            </Array>
          </mxGeometry>
        </mxCell>
        <mxCell id="WLp2PhEPggi1hbm3gHjh-49" value="T" style="text;html=1;align=center;verticalAlign=middle;resizable=0;points=[];autosize=1;strokeColor=none;fillColor=none;" vertex="1" parent="1">
          <mxGeometry x="675" y="1358" width="30" height="30" as="geometry" />
        </mxCell>
        <mxCell id="WLp2PhEPggi1hbm3gHjh-53" value="" style="edgeStyle=orthogonalEdgeStyle;rounded=0;orthogonalLoop=1;jettySize=auto;html=1;" edge="1" parent="1" source="WLp2PhEPggi1hbm3gHjh-50" target="WLp2PhEPggi1hbm3gHjh-52">
          <mxGeometry relative="1" as="geometry" />
        </mxCell>
        <mxCell id="WLp2PhEPggi1hbm3gHjh-50" value="แสดงข้อมูลของ Array2" style="shape=parallelogram;perimeter=parallelogramPerimeter;whiteSpace=wrap;html=1;fixedSize=1;strokeWidth=2;" vertex="1" parent="1">
          <mxGeometry x="820" y="1295" width="180" height="70" as="geometry" />
        </mxCell>
        <mxCell id="WLp2PhEPggi1hbm3gHjh-55" value="" style="edgeStyle=orthogonalEdgeStyle;rounded=0;orthogonalLoop=1;jettySize=auto;html=1;" edge="1" parent="1" source="WLp2PhEPggi1hbm3gHjh-52" target="WLp2PhEPggi1hbm3gHjh-54">
          <mxGeometry relative="1" as="geometry" />
        </mxCell>
        <mxCell id="WLp2PhEPggi1hbm3gHjh-52" value="int i = 0" style="whiteSpace=wrap;html=1;strokeWidth=2;" vertex="1" parent="1">
          <mxGeometry x="850" y="1450" width="120" height="60" as="geometry" />
        </mxCell>
        <mxCell id="WLp2PhEPggi1hbm3gHjh-57" value="" style="edgeStyle=orthogonalEdgeStyle;rounded=0;orthogonalLoop=1;jettySize=auto;html=1;" edge="1" parent="1" source="WLp2PhEPggi1hbm3gHjh-54" target="WLp2PhEPggi1hbm3gHjh-56">
          <mxGeometry relative="1" as="geometry" />
        </mxCell>
        <mxCell id="WLp2PhEPggi1hbm3gHjh-60" value="" style="edgeStyle=orthogonalEdgeStyle;rounded=0;orthogonalLoop=1;jettySize=auto;html=1;" edge="1" parent="1" source="WLp2PhEPggi1hbm3gHjh-54" target="WLp2PhEPggi1hbm3gHjh-59">
          <mxGeometry relative="1" as="geometry" />
        </mxCell>
        <mxCell id="WLp2PhEPggi1hbm3gHjh-54" value="i &amp;lt; number ?" style="rhombus;whiteSpace=wrap;html=1;strokeWidth=2;" vertex="1" parent="1">
          <mxGeometry x="870" y="1760" width="80" height="80" as="geometry" />
        </mxCell>
        <mxCell id="WLp2PhEPggi1hbm3gHjh-63" value="" style="edgeStyle=orthogonalEdgeStyle;rounded=0;orthogonalLoop=1;jettySize=auto;html=1;" edge="1" parent="1" source="WLp2PhEPggi1hbm3gHjh-56" target="WLp2PhEPggi1hbm3gHjh-62">
          <mxGeometry relative="1" as="geometry" />
        </mxCell>
        <mxCell id="WLp2PhEPggi1hbm3gHjh-56" value="printf( &quot;%d&quot;, Arry2) ;" style="shape=parallelogram;perimeter=parallelogramPerimeter;whiteSpace=wrap;html=1;fixedSize=1;strokeWidth=2;" vertex="1" parent="1">
          <mxGeometry x="835" y="1930" width="150" height="60" as="geometry" />
        </mxCell>
        <mxCell id="WLp2PhEPggi1hbm3gHjh-58" value="T" style="text;html=1;align=center;verticalAlign=middle;resizable=0;points=[];autosize=1;strokeColor=none;fillColor=none;" vertex="1" parent="1">
          <mxGeometry x="875" y="1848" width="30" height="30" as="geometry" />
        </mxCell>
        <mxCell id="WLp2PhEPggi1hbm3gHjh-67" value="" style="edgeStyle=orthogonalEdgeStyle;rounded=0;orthogonalLoop=1;jettySize=auto;html=1;" edge="1" parent="1" source="WLp2PhEPggi1hbm3gHjh-59" target="WLp2PhEPggi1hbm3gHjh-66">
          <mxGeometry relative="1" as="geometry" />
        </mxCell>
        <mxCell id="WLp2PhEPggi1hbm3gHjh-59" value="เว้นบรรทัด" style="shape=parallelogram;perimeter=parallelogramPerimeter;whiteSpace=wrap;html=1;fixedSize=1;strokeWidth=2;" vertex="1" parent="1">
          <mxGeometry x="1010" y="1770" width="120" height="60" as="geometry" />
        </mxCell>
        <mxCell id="WLp2PhEPggi1hbm3gHjh-61" value="F" style="text;html=1;align=center;verticalAlign=middle;resizable=0;points=[];autosize=1;strokeColor=none;fillColor=none;" vertex="1" parent="1">
          <mxGeometry x="955" y="1748" width="30" height="30" as="geometry" />
        </mxCell>
        <mxCell id="WLp2PhEPggi1hbm3gHjh-65" style="edgeStyle=orthogonalEdgeStyle;rounded=0;orthogonalLoop=1;jettySize=auto;html=1;exitX=0.5;exitY=1;exitDx=0;exitDy=0;" edge="1" parent="1" source="WLp2PhEPggi1hbm3gHjh-62" target="WLp2PhEPggi1hbm3gHjh-64">
          <mxGeometry relative="1" as="geometry">
            <Array as="points">
              <mxPoint x="910" y="2180" />
              <mxPoint x="770" y="2180" />
              <mxPoint x="770" y="1705" />
            </Array>
          </mxGeometry>
        </mxCell>
        <mxCell id="WLp2PhEPggi1hbm3gHjh-62" value="i++" style="whiteSpace=wrap;html=1;strokeWidth=2;" vertex="1" parent="1">
          <mxGeometry x="850" y="2070" width="120" height="60" as="geometry" />
        </mxCell>
        <mxCell id="WLp2PhEPggi1hbm3gHjh-64" value="" style="shape=waypoint;sketch=0;fillStyle=solid;size=6;pointerEvents=1;points=[];fillColor=none;resizable=0;rotatable=0;perimeter=centerPerimeter;snapToPoint=1;" vertex="1" parent="1">
          <mxGeometry x="900" y="1695" width="20" height="20" as="geometry" />
        </mxCell>
        <mxCell id="WLp2PhEPggi1hbm3gHjh-69" value="" style="edgeStyle=orthogonalEdgeStyle;rounded=0;orthogonalLoop=1;jettySize=auto;html=1;" edge="1" parent="1" source="WLp2PhEPggi1hbm3gHjh-66" target="WLp2PhEPggi1hbm3gHjh-68">
          <mxGeometry relative="1" as="geometry" />
        </mxCell>
        <mxCell id="WLp2PhEPggi1hbm3gHjh-66" value="printf( &quot;--| Copy Data from Array1 to Array2\n&quot; )" style="whiteSpace=wrap;html=1;strokeWidth=2;" vertex="1" parent="1">
          <mxGeometry x="1150" y="1920" width="270" height="60" as="geometry" />
        </mxCell>
        <mxCell id="WLp2PhEPggi1hbm3gHjh-71" value="" style="edgeStyle=orthogonalEdgeStyle;rounded=0;orthogonalLoop=1;jettySize=auto;html=1;" edge="1" parent="1" source="WLp2PhEPggi1hbm3gHjh-68" target="WLp2PhEPggi1hbm3gHjh-70">
          <mxGeometry relative="1" as="geometry" />
        </mxCell>
        <mxCell id="WLp2PhEPggi1hbm3gHjh-68" value="i++" style="whiteSpace=wrap;html=1;strokeWidth=2;" vertex="1" parent="1">
          <mxGeometry x="1225" y="2060" width="120" height="60" as="geometry" />
        </mxCell>
        <mxCell id="WLp2PhEPggi1hbm3gHjh-73" value="" style="edgeStyle=orthogonalEdgeStyle;rounded=0;orthogonalLoop=1;jettySize=auto;html=1;" edge="1" parent="1" source="WLp2PhEPggi1hbm3gHjh-70" target="WLp2PhEPggi1hbm3gHjh-72">
          <mxGeometry relative="1" as="geometry" />
        </mxCell>
        <mxCell id="WLp2PhEPggi1hbm3gHjh-80" value="" style="edgeStyle=orthogonalEdgeStyle;rounded=0;orthogonalLoop=1;jettySize=auto;html=1;" edge="1" parent="1" source="WLp2PhEPggi1hbm3gHjh-70" target="WLp2PhEPggi1hbm3gHjh-79">
          <mxGeometry relative="1" as="geometry" />
        </mxCell>
        <mxCell id="WLp2PhEPggi1hbm3gHjh-70" value="i &amp;lt; number ?" style="rhombus;whiteSpace=wrap;html=1;strokeWidth=2;" vertex="1" parent="1">
          <mxGeometry x="1245" y="2190" width="80" height="80" as="geometry" />
        </mxCell>
        <mxCell id="WLp2PhEPggi1hbm3gHjh-75" value="" style="edgeStyle=orthogonalEdgeStyle;rounded=0;orthogonalLoop=1;jettySize=auto;html=1;" edge="1" parent="1" source="WLp2PhEPggi1hbm3gHjh-72" target="WLp2PhEPggi1hbm3gHjh-74">
          <mxGeometry relative="1" as="geometry" />
        </mxCell>
        <mxCell id="WLp2PhEPggi1hbm3gHjh-72" value="Array2 [ i ] = Arry1[ i ]" style="whiteSpace=wrap;html=1;strokeWidth=2;" vertex="1" parent="1">
          <mxGeometry x="1225" y="2360" width="120" height="60" as="geometry" />
        </mxCell>
        <mxCell id="WLp2PhEPggi1hbm3gHjh-74" value="i++" style="whiteSpace=wrap;html=1;strokeWidth=2;" vertex="1" parent="1">
          <mxGeometry x="1225" y="2500" width="120" height="60" as="geometry" />
        </mxCell>
        <mxCell id="WLp2PhEPggi1hbm3gHjh-76" value="" style="shape=waypoint;sketch=0;fillStyle=solid;size=6;pointerEvents=1;points=[];fillColor=none;resizable=0;rotatable=0;perimeter=centerPerimeter;snapToPoint=1;" vertex="1" parent="1">
          <mxGeometry x="1275" y="2150" width="20" height="20" as="geometry" />
        </mxCell>
        <mxCell id="WLp2PhEPggi1hbm3gHjh-77" style="edgeStyle=orthogonalEdgeStyle;rounded=0;orthogonalLoop=1;jettySize=auto;html=1;exitX=0.5;exitY=1;exitDx=0;exitDy=0;entryX=0.7;entryY=0.8;entryDx=0;entryDy=0;entryPerimeter=0;" edge="1" parent="1" source="WLp2PhEPggi1hbm3gHjh-74" target="WLp2PhEPggi1hbm3gHjh-76">
          <mxGeometry relative="1" as="geometry">
            <Array as="points">
              <mxPoint x="1285" y="2610" />
              <mxPoint x="1430" y="2610" />
              <mxPoint x="1430" y="2160" />
            </Array>
          </mxGeometry>
        </mxCell>
        <mxCell id="WLp2PhEPggi1hbm3gHjh-78" value="T" style="text;html=1;align=center;verticalAlign=middle;resizable=0;points=[];autosize=1;strokeColor=none;fillColor=none;" vertex="1" parent="1">
          <mxGeometry x="1295" y="2268" width="30" height="30" as="geometry" />
        </mxCell>
        <mxCell id="WLp2PhEPggi1hbm3gHjh-82" value="" style="edgeStyle=orthogonalEdgeStyle;rounded=0;orthogonalLoop=1;jettySize=auto;html=1;" edge="1" parent="1" source="WLp2PhEPggi1hbm3gHjh-79" target="WLp2PhEPggi1hbm3gHjh-81">
          <mxGeometry relative="1" as="geometry" />
        </mxCell>
        <mxCell id="WLp2PhEPggi1hbm3gHjh-79" value="แสดงข้อมูลของ Arry2" style="shape=parallelogram;perimeter=parallelogramPerimeter;whiteSpace=wrap;html=1;fixedSize=1;strokeWidth=2;" vertex="1" parent="1">
          <mxGeometry x="1010" y="2200" width="175" height="60" as="geometry" />
        </mxCell>
        <mxCell id="WLp2PhEPggi1hbm3gHjh-84" value="" style="edgeStyle=orthogonalEdgeStyle;rounded=0;orthogonalLoop=1;jettySize=auto;html=1;" edge="1" parent="1" source="WLp2PhEPggi1hbm3gHjh-81" target="WLp2PhEPggi1hbm3gHjh-83">
          <mxGeometry relative="1" as="geometry" />
        </mxCell>
        <mxCell id="WLp2PhEPggi1hbm3gHjh-81" value="int i = 0" style="whiteSpace=wrap;html=1;strokeWidth=2;" vertex="1" parent="1">
          <mxGeometry x="1037.5" y="2340" width="120" height="60" as="geometry" />
        </mxCell>
        <mxCell id="WLp2PhEPggi1hbm3gHjh-86" value="" style="edgeStyle=orthogonalEdgeStyle;rounded=0;orthogonalLoop=1;jettySize=auto;html=1;" edge="1" parent="1" source="WLp2PhEPggi1hbm3gHjh-83" target="WLp2PhEPggi1hbm3gHjh-85">
          <mxGeometry relative="1" as="geometry" />
        </mxCell>
        <mxCell id="WLp2PhEPggi1hbm3gHjh-93" value="" style="edgeStyle=orthogonalEdgeStyle;rounded=0;orthogonalLoop=1;jettySize=auto;html=1;" edge="1" parent="1" source="WLp2PhEPggi1hbm3gHjh-83" target="WLp2PhEPggi1hbm3gHjh-92">
          <mxGeometry relative="1" as="geometry" />
        </mxCell>
        <mxCell id="WLp2PhEPggi1hbm3gHjh-83" value="i &amp;lt; number ?" style="rhombus;whiteSpace=wrap;html=1;strokeWidth=2;" vertex="1" parent="1">
          <mxGeometry x="1057.5" y="2610" width="80" height="80" as="geometry" />
        </mxCell>
        <mxCell id="WLp2PhEPggi1hbm3gHjh-89" value="" style="edgeStyle=orthogonalEdgeStyle;rounded=0;orthogonalLoop=1;jettySize=auto;html=1;" edge="1" parent="1" source="WLp2PhEPggi1hbm3gHjh-85" target="WLp2PhEPggi1hbm3gHjh-88">
          <mxGeometry relative="1" as="geometry" />
        </mxCell>
        <mxCell id="WLp2PhEPggi1hbm3gHjh-85" value="แสดงข้อมูลของArray2&lt;div&gt;หลังคัดลอก&lt;/div&gt;" style="shape=parallelogram;perimeter=parallelogramPerimeter;whiteSpace=wrap;html=1;fixedSize=1;strokeWidth=2;" vertex="1" parent="1">
          <mxGeometry x="1011.25" y="2800" width="172.5" height="60" as="geometry" />
        </mxCell>
        <mxCell id="WLp2PhEPggi1hbm3gHjh-87" value="T" style="text;html=1;align=center;verticalAlign=middle;resizable=0;points=[];autosize=1;strokeColor=none;fillColor=none;" vertex="1" parent="1">
          <mxGeometry x="1125" y="2698" width="30" height="30" as="geometry" />
        </mxCell>
        <mxCell id="WLp2PhEPggi1hbm3gHjh-88" value="i++" style="whiteSpace=wrap;html=1;strokeWidth=2;" vertex="1" parent="1">
          <mxGeometry x="1037.5" y="2940" width="120" height="60" as="geometry" />
        </mxCell>
        <mxCell id="WLp2PhEPggi1hbm3gHjh-90" value="" style="shape=waypoint;sketch=0;fillStyle=solid;size=6;pointerEvents=1;points=[];fillColor=none;resizable=0;rotatable=0;perimeter=centerPerimeter;snapToPoint=1;" vertex="1" parent="1">
          <mxGeometry x="1088" y="2540" width="20" height="20" as="geometry" />
        </mxCell>
        <mxCell id="WLp2PhEPggi1hbm3gHjh-91" style="edgeStyle=orthogonalEdgeStyle;rounded=0;orthogonalLoop=1;jettySize=auto;html=1;exitX=0.5;exitY=1;exitDx=0;exitDy=0;entryX=0.55;entryY=0.85;entryDx=0;entryDy=0;entryPerimeter=0;" edge="1" parent="1" source="WLp2PhEPggi1hbm3gHjh-88" target="WLp2PhEPggi1hbm3gHjh-90">
          <mxGeometry relative="1" as="geometry">
            <Array as="points">
              <mxPoint x="1098" y="3040" />
              <mxPoint x="930" y="3040" />
              <mxPoint x="930" y="2550" />
            </Array>
          </mxGeometry>
        </mxCell>
        <mxCell id="WLp2PhEPggi1hbm3gHjh-92" value="เว้นบรรทัด" style="whiteSpace=wrap;html=1;strokeWidth=2;" vertex="1" parent="1">
          <mxGeometry x="1260" y="2720" width="120" height="60" as="geometry" />
        </mxCell>
        <mxCell id="WLp2PhEPggi1hbm3gHjh-94" value="F" style="text;html=1;align=center;verticalAlign=middle;resizable=0;points=[];autosize=1;strokeColor=none;fillColor=none;" vertex="1" parent="1">
          <mxGeometry x="1145" y="2608" width="30" height="30" as="geometry" />
        </mxCell>
        <mxCell id="WLp2PhEPggi1hbm3gHjh-95" value="end" style="strokeWidth=2;html=1;shape=mxgraph.flowchart.start_1;whiteSpace=wrap;" vertex="1" parent="1">
          <mxGeometry x="1191" y="3110" width="100" height="60" as="geometry" />
        </mxCell>
        <mxCell id="WLp2PhEPggi1hbm3gHjh-96" style="edgeStyle=orthogonalEdgeStyle;rounded=0;orthogonalLoop=1;jettySize=auto;html=1;exitX=0.5;exitY=1;exitDx=0;exitDy=0;entryX=0.5;entryY=0;entryDx=0;entryDy=0;entryPerimeter=0;" edge="1" parent="1" source="WLp2PhEPggi1hbm3gHjh-92" target="WLp2PhEPggi1hbm3gHjh-95">
          <mxGeometry relative="1" as="geometry">
            <Array as="points">
              <mxPoint x="1320" y="3040" />
              <mxPoint x="1241" y="3040" />
            </Array>
          </mxGeometry>
        </mxCell>
      </root>
    </mxGraphModel>
  </diagram>
</mxfile>
